<svg width="21" height="20" viewBox="0 0 21 20" fill="none" xmlns="http://www.w3.org/2000/svg">
<g clip-path="url(#clip0_59_164)">
<path d="M16.3331 7.22067C16.1791 6.97617 15.9261 6.83039 15.6558 6.83039H4.39433L3.44345 4.32214C3.18637 3.64482 2.5898 3.20837 1.92237 3.20837H0V5.01937H1.92237L5.83138 15.3285C5.95909 15.6654 6.25902 15.8854 6.59191 15.8854H13.1838C13.5274 15.8854 13.8348 15.6509 13.9559 15.2987L16.4279 8.05464C16.5227 7.77574 16.4872 7.46424 16.3331 7.22067ZM12.6128 14.0744H7.14151L5.08154 8.64141H14.4668L12.6128 14.0744Z" fill="#292929"/>
<path d="M7.00391 19.5074C7.68653 19.5074 8.2399 18.8994 8.2399 18.1492C8.2399 17.399 7.68653 16.7909 7.00391 16.7909C6.32129 16.7909 5.76793 17.399 5.76793 18.1492C5.76793 18.8994 6.32129 19.5074 7.00391 19.5074Z" fill="#292929"/>
<path d="M12.7718 19.5074C13.4544 19.5074 14.0078 18.8994 14.0078 18.1492C14.0078 17.399 13.4544 16.7909 12.7718 16.7909C12.0892 16.7909 11.5358 17.399 11.5358 18.1492C11.5358 18.8994 12.0892 19.5074 12.7718 19.5074Z" fill="#292929"/>
<path d="M14.8326 13.1695C18.0182 13.1695 20.6006 10.3316 20.6006 6.83096C20.6006 3.33029 18.0182 0.492432 14.8326 0.492432C11.647 0.492432 9.06451 3.33029 9.06451 6.83096C9.06451 10.3316 11.647 13.1695 14.8326 13.1695Z" fill="#292929"/>
<path d="M17.9441 7.367H15.5067V10.3641H14.5316V7.367H12.0941V6.38245H14.5316V3.48669H15.5067V6.38245H17.9441V7.367Z" fill="white"/>
</g>
<defs>
<clipPath id="clip0_59_164">
<rect width="21" height="20" fill="white"/>
</clipPath>
</defs>
</svg>
