<svg width="211" height="19" viewBox="0 0 211 19" fill="none" xmlns="http://www.w3.org/2000/svg">
<path d="M0.496 0.475999H12.088V2.228H0.496V0.475999ZM2.272 8.636H10.456V10.388H2.272V18.5H0.496V10.388V8.636H2.272ZM15.085 18.5V0.475999H16.861V16.748H26.701V18.5H15.085ZM37.5599 18.5C36.3279 18.5 35.1599 18.26 34.0559 17.78C32.9679 17.3 32.0159 16.652 31.1999 15.836C30.3839 15.02 29.7359 14.068 29.2559 12.98C28.7759 11.876 28.5359 10.708 28.5359 9.476C28.5359 8.228 28.7679 7.06 29.2319 5.972C29.7119 4.884 30.3599 3.932 31.1759 3.116C31.9919 2.3 32.9439 1.66 34.0319 1.196C35.1359 0.715999 36.3119 0.475999 37.5599 0.475999C38.8079 0.475999 39.9759 0.715999 41.0639 1.196C42.1679 1.66 43.1279 2.3 43.9439 3.116C44.7599 3.932 45.3999 4.884 45.8639 5.972C46.3439 7.06 46.5839 8.228 46.5839 9.476C46.5839 10.724 46.3439 11.9 45.8639 13.004C45.3999 14.092 44.7599 15.044 43.9439 15.86C43.1279 16.676 42.1679 17.324 41.0639 17.804C39.9759 18.268 38.8079 18.5 37.5599 18.5ZM37.5599 2.228C36.5839 2.228 35.6559 2.42 34.7759 2.804C33.8959 3.188 33.1279 3.716 32.4719 4.388C31.8159 5.044 31.2879 5.812 30.8879 6.692C30.5039 7.572 30.3119 8.5 30.3119 9.476C30.3119 10.452 30.5039 11.38 30.8879 12.26C31.2879 13.14 31.8159 13.916 32.4719 14.588C33.1279 15.244 33.8959 15.772 34.7759 16.172C35.6559 16.556 36.5839 16.748 37.5599 16.748C38.5359 16.748 39.4639 16.556 40.3439 16.172C41.2239 15.772 41.9919 15.244 42.6479 14.588C43.3039 13.916 43.8239 13.14 44.2079 12.26C44.6079 11.38 44.8079 10.452 44.8079 9.476C44.8079 8.5 44.6079 7.572 44.2079 6.692C43.8239 5.812 43.3039 5.044 42.6479 4.388C41.9919 3.716 41.2239 3.188 40.3439 2.804C39.4639 2.42 38.5359 2.228 37.5599 2.228ZM50.6523 0.475999H60.3483C61.1803 0.507999 61.9163 0.699999 62.5563 1.052C62.8283 1.196 63.1003 1.388 63.3723 1.628C63.6443 1.868 63.8843 2.164 64.0923 2.516C64.3003 2.852 64.4683 3.26 64.5963 3.74C64.7243 4.204 64.7883 4.748 64.7883 5.372C64.7883 5.964 64.7243 6.492 64.5963 6.956C64.4683 7.404 64.3003 7.804 64.0923 8.156C63.8843 8.492 63.6443 8.788 63.3723 9.044C63.1003 9.284 62.8283 9.484 62.5563 9.644C61.9163 10.044 61.1803 10.292 60.3483 10.388L64.7163 18.5H62.7003L58.3563 10.388H52.4283V18.5H50.6523V0.475999ZM52.4283 8.636H60.0603C60.3163 8.636 60.6123 8.58 60.9483 8.468C61.3003 8.34 61.6283 8.148 61.9323 7.892C62.2523 7.62 62.5163 7.276 62.7243 6.86C62.9483 6.444 63.0603 5.948 63.0603 5.372C63.0603 4.78 62.9643 4.284 62.7723 3.884C62.5803 3.484 62.3403 3.164 62.0523 2.924C61.7643 2.668 61.4443 2.492 61.0923 2.396C60.7403 2.284 60.3963 2.228 60.0603 2.228H52.4283V8.636ZM81.5824 14.18H72.3664L70.2304 18.5H68.2864L76.9744 0.499999L85.6624 18.5H83.7184L81.5824 14.18ZM80.7424 12.476L76.9744 4.7L73.1824 12.476H80.7424ZM87.5069 18.5V0.475999H89.2829V16.748H99.1229V18.5H87.5069Z" fill="#1C1C1C"/>
<path d="M101.798 11.012C101.606 9.668 101.686 8.364 102.038 7.1C102.406 5.836 102.99 4.716 103.79 3.74C104.606 2.748 105.606 1.956 106.79 1.364C107.974 0.771999 109.286 0.475999 110.726 0.475999C113.11 0.475999 115.182 1.292 116.942 2.924L115.502 4.052C114.83 3.46 114.102 3.012 113.318 2.708C112.534 2.388 111.67 2.228 110.726 2.228C109.574 2.228 108.526 2.468 107.582 2.948C106.638 3.428 105.838 4.076 105.182 4.892C104.542 5.692 104.078 6.62 103.79 7.676C103.502 8.732 103.446 9.844 103.622 11.012H101.798ZM111.446 11.012V9.26H117.086V17.132C116.654 17.468 116.318 17.732 116.078 17.924C115.854 18.1 115.686 18.228 115.574 18.308C115.462 18.388 115.39 18.444 115.358 18.476C115.342 18.492 115.326 18.5 115.31 18.5V11.012H111.446ZM134.059 14.18H124.843L122.707 18.5H120.763L129.451 0.499999L138.139 18.5H136.195L134.059 14.18ZM133.219 12.476L129.451 4.7L125.659 12.476H133.219ZM141.519 0.475999H151.215C152.047 0.507999 152.783 0.699999 153.423 1.052C153.695 1.196 153.967 1.388 154.239 1.628C154.511 1.868 154.751 2.164 154.959 2.516C155.167 2.852 155.335 3.26 155.463 3.74C155.591 4.204 155.655 4.748 155.655 5.372C155.655 5.964 155.591 6.492 155.463 6.956C155.335 7.404 155.167 7.804 154.959 8.156C154.751 8.492 154.511 8.788 154.239 9.044C153.967 9.284 153.695 9.484 153.423 9.644C152.783 10.044 152.047 10.292 151.215 10.388L155.583 18.5H153.567L149.223 10.388H143.295V18.5H141.519V0.475999ZM143.295 8.636H150.927C151.183 8.636 151.479 8.58 151.815 8.468C152.167 8.34 152.495 8.148 152.799 7.892C153.119 7.62 153.383 7.276 153.591 6.86C153.815 6.444 153.927 5.948 153.927 5.372C153.927 4.78 153.831 4.284 153.639 3.884C153.447 3.484 153.207 3.164 152.919 2.924C152.631 2.668 152.311 2.492 151.959 2.396C151.607 2.284 151.263 2.228 150.927 2.228H143.295V8.636ZM160.152 18.5V0.475999H165.984C167.232 0.475999 168.4 0.723999 169.488 1.22C170.576 1.716 171.52 2.38 172.32 3.212C173.136 4.028 173.768 4.98 174.216 6.068C174.68 7.156 174.912 8.292 174.912 9.476C174.912 10.708 174.664 11.876 174.168 12.98C173.688 14.068 173.032 15.02 172.2 15.836C171.384 16.652 170.432 17.3 169.344 17.78C168.272 18.26 167.152 18.5 165.984 18.5H160.152ZM161.928 16.748H166.176C167.152 16.748 168.064 16.54 168.912 16.124C169.76 15.708 170.496 15.164 171.12 14.492C171.744 13.82 172.232 13.052 172.584 12.188C172.952 11.308 173.136 10.412 173.136 9.5C173.136 8.524 172.944 7.596 172.56 6.716C172.176 5.82 171.656 5.044 171 4.388C170.36 3.732 169.624 3.212 168.792 2.828C167.96 2.428 167.088 2.228 166.176 2.228H161.928V16.748ZM190.635 0.475999V2.228H180.795V8.636H189.003V10.388H180.795V16.748H190.635V18.5H179.019V0.475999H190.635ZM195.637 18.5V0.475999L208.789 14.132V0.475999H210.565V18.5L197.413 4.844V18.5H195.637Z" fill="#0F500A"/>
</svg>
