<svg width="141" height="13" viewBox="0 0 141 13" fill="none" xmlns="http://www.w3.org/2000/svg">
<path d="M0.664 0.983999H8.392V2.152H0.664V0.983999ZM1.848 6.424H7.304V7.592H1.848V13H0.664V7.592V6.424H1.848ZM10.39 13V0.983999H11.574V11.832H18.134V13H10.39ZM25.3733 13C24.5519 13 23.7733 12.84 23.0373 12.52C22.3119 12.2 21.6773 11.768 21.1332 11.224C20.5893 10.68 20.1573 10.0453 19.8372 9.32C19.5173 8.584 19.3573 7.80533 19.3573 6.984C19.3573 6.152 19.5119 5.37333 19.8213 4.648C20.1413 3.92267 20.5733 3.288 21.1173 2.744C21.6613 2.2 22.2959 1.77333 23.0213 1.464C23.7573 1.144 24.5413 0.983999 25.3733 0.983999C26.2053 0.983999 26.9839 1.144 27.7093 1.464C28.4453 1.77333 29.0853 2.2 29.6293 2.744C30.1733 3.288 30.5999 3.92267 30.9093 4.648C31.2293 5.37333 31.3893 6.152 31.3893 6.984C31.3893 7.816 31.2293 8.6 30.9093 9.336C30.5999 10.0613 30.1733 10.696 29.6293 11.24C29.0853 11.784 28.4453 12.216 27.7093 12.536C26.9839 12.8453 26.2053 13 25.3733 13ZM25.3733 2.152C24.7226 2.152 24.1039 2.28 23.5173 2.536C22.9306 2.792 22.4186 3.144 21.9813 3.592C21.5439 4.02933 21.1919 4.54133 20.9253 5.128C20.6693 5.71467 20.5413 6.33333 20.5413 6.984C20.5413 7.63467 20.6693 8.25333 20.9253 8.84C21.1919 9.42667 21.5439 9.944 21.9813 10.392C22.4186 10.8293 22.9306 11.1813 23.5173 11.448C24.1039 11.704 24.7226 11.832 25.3733 11.832C26.0239 11.832 26.6426 11.704 27.2292 11.448C27.8159 11.1813 28.3279 10.8293 28.7653 10.392C29.2026 9.944 29.5493 9.42667 29.8053 8.84C30.0719 8.25333 30.2053 7.63467 30.2053 6.984C30.2053 6.33333 30.0719 5.71467 29.8053 5.128C29.5493 4.54133 29.2026 4.02933 28.7653 3.592C28.3279 3.144 27.8159 2.792 27.2292 2.536C26.6426 2.28 26.0239 2.152 25.3733 2.152ZM34.1015 0.983999H40.5655C41.1202 1.00533 41.6108 1.13333 42.0375 1.368C42.2188 1.464 42.4002 1.592 42.5815 1.752C42.7628 1.912 42.9228 2.10933 43.0615 2.344C43.2002 2.568 43.3122 2.84 43.3975 3.16C43.4828 3.46933 43.5255 3.832 43.5255 4.248C43.5255 4.64267 43.4828 4.99467 43.3975 5.304C43.3122 5.60267 43.2002 5.86933 43.0615 6.104C42.9228 6.328 42.7628 6.52533 42.5815 6.696C42.4002 6.856 42.2188 6.98933 42.0375 7.096C41.6108 7.36267 41.1202 7.528 40.5655 7.592L43.4775 13H42.1335L39.2375 7.592H35.2855V13H34.1015V0.983999ZM35.2855 6.424H40.3735C40.5442 6.424 40.7415 6.38667 40.9655 6.312C41.2002 6.22667 41.4188 6.09867 41.6215 5.928C41.8348 5.74667 42.0108 5.51733 42.1495 5.24C42.2988 4.96267 42.3735 4.632 42.3735 4.248C42.3735 3.85333 42.3095 3.52267 42.1815 3.256C42.0535 2.98933 41.8935 2.776 41.7015 2.616C41.5095 2.44533 41.2962 2.328 41.0615 2.264C40.8268 2.18933 40.5975 2.152 40.3735 2.152H35.2855V6.424ZM54.7216 10.12H48.5776L47.1536 13H45.8576L51.6496 0.999999L57.4416 13H56.1456L54.7216 10.12ZM54.1616 8.984L51.6496 3.8L49.1216 8.984H54.1616ZM58.6713 13V0.983999H59.8553V11.832H66.4153V13H58.6713Z" fill="#1C1C1C"/>
<path d="M68.1985 8.008C68.0705 7.112 68.1238 6.24267 68.3585 5.4C68.6038 4.55733 68.9932 3.81067 69.5265 3.16C70.0705 2.49867 70.7372 1.97067 71.5265 1.576C72.3158 1.18133 73.1905 0.983999 74.1505 0.983999C75.7398 0.983999 77.1212 1.528 78.2945 2.616L77.3345 3.368C76.8865 2.97333 76.4012 2.67467 75.8785 2.472C75.3558 2.25867 74.7798 2.152 74.1505 2.152C73.3825 2.152 72.6838 2.312 72.0545 2.632C71.4252 2.952 70.8918 3.384 70.4545 3.928C70.0278 4.46133 69.7185 5.08 69.5265 5.784C69.3345 6.488 69.2972 7.22933 69.4145 8.008H68.1985ZM74.6305 8.008V6.84H78.3905V12.088C78.1025 12.312 77.8785 12.488 77.7185 12.616C77.5692 12.7333 77.4572 12.8187 77.3825 12.872C77.3078 12.9253 77.2598 12.9627 77.2385 12.984C77.2278 12.9947 77.2172 13 77.2065 13V8.008H74.6305ZM89.706 10.12H83.562L82.138 13H80.842L86.634 0.999999L92.426 13H91.13L89.706 10.12ZM89.146 8.984L86.634 3.8L84.106 8.984H89.146ZM94.6796 0.983999H101.144C101.698 1.00533 102.189 1.13333 102.616 1.368C102.797 1.464 102.978 1.592 103.16 1.752C103.341 1.912 103.501 2.10933 103.64 2.344C103.778 2.568 103.89 2.84 103.976 3.16C104.061 3.46933 104.104 3.832 104.104 4.248C104.104 4.64267 104.061 4.99467 103.976 5.304C103.89 5.60267 103.778 5.86933 103.64 6.104C103.501 6.328 103.341 6.52533 103.16 6.696C102.978 6.856 102.797 6.98933 102.616 7.096C102.189 7.36267 101.698 7.528 101.144 7.592L104.056 13H102.712L99.8156 7.592H95.8636V13H94.6796V0.983999ZM95.8636 6.424H100.952C101.122 6.424 101.32 6.38667 101.544 6.312C101.778 6.22667 101.997 6.09867 102.2 5.928C102.413 5.74667 102.589 5.51733 102.728 5.24C102.877 4.96267 102.952 4.632 102.952 4.248C102.952 3.85333 102.888 3.52267 102.76 3.256C102.632 2.98933 102.472 2.776 102.28 2.616C102.088 2.44533 101.874 2.328 101.64 2.264C101.405 2.18933 101.176 2.152 100.952 2.152H95.8636V6.424ZM107.102 13V0.983999H110.99C111.822 0.983999 112.6 1.14933 113.326 1.48C114.051 1.81067 114.68 2.25333 115.214 2.808C115.758 3.352 116.179 3.98667 116.478 4.712C116.787 5.43733 116.942 6.19467 116.942 6.984C116.942 7.80533 116.776 8.584 116.446 9.32C116.126 10.0453 115.688 10.68 115.134 11.224C114.59 11.768 113.955 12.2 113.23 12.52C112.515 12.84 111.768 13 110.99 13H107.102ZM108.286 11.832H111.118C111.768 11.832 112.376 11.6933 112.942 11.416C113.507 11.1387 113.998 10.776 114.414 10.328C114.83 9.88 115.155 9.368 115.39 8.792C115.635 8.20533 115.758 7.608 115.758 7C115.758 6.34933 115.63 5.73067 115.374 5.144C115.118 4.54667 114.771 4.02933 114.334 3.592C113.907 3.15467 113.416 2.808 112.862 2.552C112.307 2.28533 111.726 2.152 111.118 2.152H108.286V11.832ZM127.424 0.983999V2.152H120.864V6.424H126.336V7.592H120.864V11.832H127.424V13H119.68V0.983999H127.424ZM130.758 13V0.983999L139.526 10.088V0.983999H140.71V13L131.942 3.896V13H130.758Z" fill="#0F500A"/>
</svg>
