<svg width="144" height="17" viewBox="0 0 144 17" fill="none" xmlns="http://www.w3.org/2000/svg">
<path d="M1.664 0.983999H9.392V2.152H1.664V0.983999ZM2.848 6.424H8.304V7.592H2.848V13H1.664V7.592V6.424H2.848ZM11.39 13V0.983999H12.574V11.832H19.134V13H11.39ZM26.3733 13C25.5519 13 24.7733 12.84 24.0373 12.52C23.3119 12.2 22.6773 11.768 22.1332 11.224C21.5893 10.68 21.1573 10.0453 20.8372 9.32C20.5173 8.584 20.3573 7.80533 20.3573 6.984C20.3573 6.152 20.5119 5.37333 20.8213 4.648C21.1413 3.92267 21.5733 3.288 22.1173 2.744C22.6613 2.2 23.2959 1.77333 24.0213 1.464C24.7573 1.144 25.5413 0.983999 26.3733 0.983999C27.2053 0.983999 27.9839 1.144 28.7093 1.464C29.4453 1.77333 30.0853 2.2 30.6293 2.744C31.1733 3.288 31.5999 3.92267 31.9093 4.648C32.2293 5.37333 32.3893 6.152 32.3893 6.984C32.3893 7.816 32.2293 8.6 31.9093 9.336C31.5999 10.0613 31.1733 10.696 30.6293 11.24C30.0853 11.784 29.4453 12.216 28.7093 12.536C27.9839 12.8453 27.2053 13 26.3733 13ZM26.3733 2.152C25.7226 2.152 25.1039 2.28 24.5173 2.536C23.9306 2.792 23.4186 3.144 22.9813 3.592C22.5439 4.02933 22.1919 4.54133 21.9253 5.128C21.6693 5.71467 21.5413 6.33333 21.5413 6.984C21.5413 7.63467 21.6693 8.25333 21.9253 8.84C22.1919 9.42667 22.5439 9.944 22.9813 10.392C23.4186 10.8293 23.9306 11.1813 24.5173 11.448C25.1039 11.704 25.7226 11.832 26.3733 11.832C27.0239 11.832 27.6426 11.704 28.2292 11.448C28.8159 11.1813 29.3279 10.8293 29.7653 10.392C30.2026 9.944 30.5493 9.42667 30.8053 8.84C31.0719 8.25333 31.2053 7.63467 31.2053 6.984C31.2053 6.33333 31.0719 5.71467 30.8053 5.128C30.5493 4.54133 30.2026 4.02933 29.7653 3.592C29.3279 3.144 28.8159 2.792 28.2292 2.536C27.6426 2.28 27.0239 2.152 26.3733 2.152ZM35.1015 0.983999H41.5655C42.1202 1.00533 42.6108 1.13333 43.0375 1.368C43.2188 1.464 43.4002 1.592 43.5815 1.752C43.7628 1.912 43.9228 2.10933 44.0615 2.344C44.2002 2.568 44.3122 2.84 44.3975 3.16C44.4828 3.46933 44.5255 3.832 44.5255 4.248C44.5255 4.64267 44.4828 4.99467 44.3975 5.304C44.3122 5.60267 44.2002 5.86933 44.0615 6.104C43.9228 6.328 43.7628 6.52533 43.5815 6.696C43.4002 6.856 43.2188 6.98933 43.0375 7.096C42.6108 7.36267 42.1202 7.528 41.5655 7.592L44.4775 13H43.1335L40.2375 7.592H36.2855V13H35.1015V0.983999ZM36.2855 6.424H41.3735C41.5442 6.424 41.7415 6.38667 41.9655 6.312C42.2002 6.22667 42.4188 6.09867 42.6215 5.928C42.8348 5.74667 43.0108 5.51733 43.1495 5.24C43.2988 4.96267 43.3735 4.632 43.3735 4.248C43.3735 3.85333 43.3095 3.52267 43.1815 3.256C43.0535 2.98933 42.8935 2.776 42.7015 2.616C42.5095 2.44533 42.2962 2.328 42.0615 2.264C41.8268 2.18933 41.5975 2.152 41.3735 2.152H36.2855V6.424ZM55.7216 10.12H49.5776L48.1536 13H46.8576L52.6496 0.999999L58.4416 13H57.1456L55.7216 10.12ZM55.1616 8.984L52.6496 3.8L50.1216 8.984H55.1616ZM59.6713 13V0.983999H60.8553V11.832H67.4153V13H59.6713Z" fill="#1C1C1C"/>
<path d="M69.1985 8.008C69.0705 7.112 69.1238 6.24267 69.3585 5.4C69.6038 4.55733 69.9932 3.81067 70.5265 3.16C71.0705 2.49867 71.7372 1.97067 72.5265 1.576C73.3158 1.18133 74.1905 0.983999 75.1505 0.983999C76.7398 0.983999 78.1212 1.528 79.2945 2.616L78.3345 3.368C77.8865 2.97333 77.4012 2.67467 76.8785 2.472C76.3558 2.25867 75.7798 2.152 75.1505 2.152C74.3825 2.152 73.6838 2.312 73.0545 2.632C72.4252 2.952 71.8918 3.384 71.4545 3.928C71.0278 4.46133 70.7185 5.08 70.5265 5.784C70.3345 6.488 70.2972 7.22933 70.4145 8.008H69.1985ZM75.6305 8.008V6.84H79.3905V12.088C79.1025 12.312 78.8785 12.488 78.7185 12.616C78.5692 12.7333 78.4572 12.8187 78.3825 12.872C78.3078 12.9253 78.2598 12.9627 78.2385 12.984C78.2278 12.9947 78.2172 13 78.2065 13V8.008H75.6305ZM90.706 10.12H84.562L83.138 13H81.842L87.634 0.999999L93.426 13H92.13L90.706 10.12ZM90.146 8.984L87.634 3.8L85.106 8.984H90.146ZM95.6796 0.983999H102.144C102.698 1.00533 103.189 1.13333 103.616 1.368C103.797 1.464 103.978 1.592 104.16 1.752C104.341 1.912 104.501 2.10933 104.64 2.344C104.778 2.568 104.89 2.84 104.976 3.16C105.061 3.46933 105.104 3.832 105.104 4.248C105.104 4.64267 105.061 4.99467 104.976 5.304C104.89 5.60267 104.778 5.86933 104.64 6.104C104.501 6.328 104.341 6.52533 104.16 6.696C103.978 6.856 103.797 6.98933 103.616 7.096C103.189 7.36267 102.698 7.528 102.144 7.592L105.056 13H103.712L100.816 7.592H96.8636V13H95.6796V0.983999ZM96.8636 6.424H101.952C102.122 6.424 102.32 6.38667 102.544 6.312C102.778 6.22667 102.997 6.09867 103.2 5.928C103.413 5.74667 103.589 5.51733 103.728 5.24C103.877 4.96267 103.952 4.632 103.952 4.248C103.952 3.85333 103.888 3.52267 103.76 3.256C103.632 2.98933 103.472 2.776 103.28 2.616C103.088 2.44533 102.874 2.328 102.64 2.264C102.405 2.18933 102.176 2.152 101.952 2.152H96.8636V6.424ZM108.102 13V0.983999H111.99C112.822 0.983999 113.6 1.14933 114.326 1.48C115.051 1.81067 115.68 2.25333 116.214 2.808C116.758 3.352 117.179 3.98667 117.478 4.712C117.787 5.43733 117.942 6.19467 117.942 6.984C117.942 7.80533 117.776 8.584 117.446 9.32C117.126 10.0453 116.688 10.68 116.134 11.224C115.59 11.768 114.955 12.2 114.23 12.52C113.515 12.84 112.768 13 111.99 13H108.102ZM109.286 11.832H112.118C112.768 11.832 113.376 11.6933 113.942 11.416C114.507 11.1387 114.998 10.776 115.414 10.328C115.83 9.88 116.155 9.368 116.39 8.792C116.635 8.20533 116.758 7.608 116.758 7C116.758 6.34933 116.63 5.73067 116.374 5.144C116.118 4.54667 115.771 4.02933 115.334 3.592C114.907 3.15467 114.416 2.808 113.862 2.552C113.307 2.28533 112.726 2.152 112.118 2.152H109.286V11.832ZM128.424 0.983999V2.152H121.864V6.424H127.336V7.592H121.864V11.832H128.424V13H120.68V0.983999H128.424ZM131.758 13V0.983999L140.526 10.088V0.983999H141.71V13L132.942 3.896V13H131.758Z" fill="#0F500A"/>
</svg>
