<svg width="211" height="19" viewBox="0 0 211 19" fill="none" xmlns="http://www.w3.org/2000/svg">
<path d="M0.496 0.266526H12.088V2.01853H0.496V0.266526ZM2.272 8.42653H10.456V10.1785H2.272V18.2905H0.496V10.1785V8.42653H2.272ZM15.085 18.2905V0.266526H16.861V16.5385H26.701V18.2905H15.085ZM37.5599 18.2905C36.3279 18.2905 35.1599 18.0505 34.0559 17.5705C32.9679 17.0905 32.0159 16.4425 31.1999 15.6265C30.3839 14.8105 29.7359 13.8585 29.2559 12.7705C28.7759 11.6665 28.5359 10.4985 28.5359 9.26653C28.5359 8.01853 28.7679 6.85053 29.2319 5.76253C29.7119 4.67453 30.3599 3.72253 31.1759 2.90653C31.9919 2.09053 32.9439 1.45053 34.0319 0.986527C35.1359 0.506526 36.3119 0.266526 37.5599 0.266526C38.8079 0.266526 39.9759 0.506526 41.0639 0.986527C42.1679 1.45053 43.1279 2.09053 43.9439 2.90653C44.7599 3.72253 45.3999 4.67453 45.8639 5.76253C46.3439 6.85053 46.5839 8.01853 46.5839 9.26653C46.5839 10.5145 46.3439 11.6905 45.8639 12.7945C45.3999 13.8825 44.7599 14.8345 43.9439 15.6505C43.1279 16.4665 42.1679 17.1145 41.0639 17.5945C39.9759 18.0585 38.8079 18.2905 37.5599 18.2905ZM37.5599 2.01853C36.5839 2.01853 35.6559 2.21053 34.7759 2.59453C33.8959 2.97853 33.1279 3.50653 32.4719 4.17853C31.8159 4.83453 31.2879 5.60253 30.8879 6.48253C30.5039 7.36253 30.3119 8.29053 30.3119 9.26653C30.3119 10.2425 30.5039 11.1705 30.8879 12.0505C31.2879 12.9305 31.8159 13.7065 32.4719 14.3785C33.1279 15.0345 33.8959 15.5625 34.7759 15.9625C35.6559 16.3465 36.5839 16.5385 37.5599 16.5385C38.5359 16.5385 39.4639 16.3465 40.3439 15.9625C41.2239 15.5625 41.9919 15.0345 42.6479 14.3785C43.3039 13.7065 43.8239 12.9305 44.2079 12.0505C44.6079 11.1705 44.8079 10.2425 44.8079 9.26653C44.8079 8.29053 44.6079 7.36253 44.2079 6.48253C43.8239 5.60253 43.3039 4.83453 42.6479 4.17853C41.9919 3.50653 41.2239 2.97853 40.3439 2.59453C39.4639 2.21053 38.5359 2.01853 37.5599 2.01853ZM50.6523 0.266526H60.3483C61.1803 0.298527 61.9163 0.490527 62.5563 0.842526C62.8283 0.986526 63.1003 1.17853 63.3723 1.41853C63.6443 1.65853 63.8843 1.95453 64.0923 2.30653C64.3003 2.64253 64.4683 3.05053 64.5963 3.53053C64.7243 3.99453 64.7883 4.53853 64.7883 5.16253C64.7883 5.75453 64.7243 6.28253 64.5963 6.74653C64.4683 7.19453 64.3003 7.59453 64.0923 7.94653C63.8843 8.28253 63.6443 8.57853 63.3723 8.83453C63.1003 9.07453 62.8283 9.27453 62.5563 9.43453C61.9163 9.83453 61.1803 10.0825 60.3483 10.1785L64.7163 18.2905H62.7003L58.3563 10.1785H52.4283V18.2905H50.6523V0.266526ZM52.4283 8.42653H60.0603C60.3163 8.42653 60.6123 8.37053 60.9483 8.25853C61.3003 8.13053 61.6283 7.93853 61.9323 7.68253C62.2523 7.41053 62.5163 7.06653 62.7243 6.65053C62.9483 6.23453 63.0603 5.73853 63.0603 5.16253C63.0603 4.57053 62.9643 4.07453 62.7723 3.67453C62.5803 3.27453 62.3403 2.95453 62.0523 2.71453C61.7643 2.45853 61.4443 2.28253 61.0923 2.18653C60.7403 2.07453 60.3963 2.01853 60.0603 2.01853H52.4283V8.42653ZM81.5824 13.9705H72.3664L70.2304 18.2905H68.2864L76.9744 0.290526L85.6624 18.2905H83.7184L81.5824 13.9705ZM80.7424 12.2665L76.9744 4.49053L73.1824 12.2665H80.7424ZM87.5069 18.2905V0.266526H89.2829V16.5385H99.1229V18.2905H87.5069Z" fill="#1C1C1C"/>
<path d="M101.798 10.8025C101.606 9.45853 101.686 8.15453 102.038 6.89053C102.406 5.62653 102.99 4.50653 103.79 3.53053C104.606 2.53853 105.606 1.74653 106.79 1.15453C107.974 0.562526 109.286 0.266526 110.726 0.266526C113.11 0.266526 115.182 1.08253 116.942 2.71453L115.502 3.84253C114.83 3.25053 114.102 2.80253 113.318 2.49853C112.534 2.17853 111.67 2.01853 110.726 2.01853C109.574 2.01853 108.526 2.25853 107.582 2.73853C106.638 3.21853 105.838 3.86653 105.182 4.68253C104.542 5.48253 104.078 6.41053 103.79 7.46653C103.502 8.52253 103.446 9.63453 103.622 10.8025H101.798ZM111.446 10.8025V9.05053H117.086V16.9225C116.654 17.2585 116.318 17.5225 116.078 17.7145C115.854 17.8905 115.686 18.0185 115.574 18.0985C115.462 18.1785 115.39 18.2345 115.358 18.2665C115.342 18.2825 115.326 18.2905 115.31 18.2905V10.8025H111.446ZM134.059 13.9705H124.843L122.707 18.2905H120.763L129.451 0.290526L138.139 18.2905H136.195L134.059 13.9705ZM133.219 12.2665L129.451 4.49053L125.659 12.2665H133.219ZM141.519 0.266526H151.215C152.047 0.298527 152.783 0.490527 153.423 0.842526C153.695 0.986526 153.967 1.17853 154.239 1.41853C154.511 1.65853 154.751 1.95453 154.959 2.30653C155.167 2.64253 155.335 3.05053 155.463 3.53053C155.591 3.99453 155.655 4.53853 155.655 5.16253C155.655 5.75453 155.591 6.28253 155.463 6.74653C155.335 7.19453 155.167 7.59453 154.959 7.94653C154.751 8.28253 154.511 8.57853 154.239 8.83453C153.967 9.07453 153.695 9.27453 153.423 9.43453C152.783 9.83453 152.047 10.0825 151.215 10.1785L155.583 18.2905H153.567L149.223 10.1785H143.295V18.2905H141.519V0.266526ZM143.295 8.42653H150.927C151.183 8.42653 151.479 8.37053 151.815 8.25853C152.167 8.13053 152.495 7.93853 152.799 7.68253C153.119 7.41053 153.383 7.06653 153.591 6.65053C153.815 6.23453 153.927 5.73853 153.927 5.16253C153.927 4.57053 153.831 4.07453 153.639 3.67453C153.447 3.27453 153.207 2.95453 152.919 2.71453C152.631 2.45853 152.311 2.28253 151.959 2.18653C151.607 2.07453 151.263 2.01853 150.927 2.01853H143.295V8.42653ZM160.152 18.2905V0.266526H165.984C167.232 0.266526 168.4 0.514526 169.488 1.01053C170.576 1.50653 171.52 2.17053 172.32 3.00253C173.136 3.81853 173.768 4.77053 174.216 5.85853C174.68 6.94653 174.912 8.08253 174.912 9.26653C174.912 10.4985 174.664 11.6665 174.168 12.7705C173.688 13.8585 173.032 14.8105 172.2 15.6265C171.384 16.4425 170.432 17.0905 169.344 17.5705C168.272 18.0505 167.152 18.2905 165.984 18.2905H160.152ZM161.928 16.5385H166.176C167.152 16.5385 168.064 16.3305 168.912 15.9145C169.76 15.4985 170.496 14.9545 171.12 14.2825C171.744 13.6105 172.232 12.8425 172.584 11.9785C172.952 11.0985 173.136 10.2025 173.136 9.29053C173.136 8.31453 172.944 7.38653 172.56 6.50653C172.176 5.61053 171.656 4.83453 171 4.17853C170.36 3.52253 169.624 3.00253 168.792 2.61853C167.96 2.21853 167.088 2.01853 166.176 2.01853H161.928V16.5385ZM190.635 0.266526V2.01853H180.795V8.42653H189.003V10.1785H180.795V16.5385H190.635V18.2905H179.019V0.266526H190.635ZM195.637 18.2905V0.266526L208.789 13.9225V0.266526H210.565V18.2905L197.413 4.63453V18.2905H195.637Z" fill="#0F500A"/>
</svg>
